<svg id="Instagram" xmlns="http://www.w3.org/2000/svg" width="55" height="55" viewBox="0 0 55 55">
  <path id="Exclusão_1" data-name="Exclusão 1" d="M27.5,55A27.507,27.507,0,0,1,16.8,2.161,27.507,27.507,0,0,1,38.2,52.839,27.327,27.327,0,0,1,27.5,55ZM20.544,11.172a9.4,9.4,0,0,0-9.373,9.373V33.934a9.4,9.4,0,0,0,9.373,9.373H33.934a9.4,9.4,0,0,0,9.373-9.373V20.544a9.4,9.4,0,0,0-9.373-9.373ZM33.934,40.629H20.544a6.716,6.716,0,0,1-6.7-6.7V20.544a6.717,6.717,0,0,1,6.7-6.7H33.934a6.716,6.716,0,0,1,6.7,6.7V33.934a6.714,6.714,0,0,1-6.7,6.7ZM27.239,19.205a8.034,8.034,0,1,0,8.033,8.034A8.043,8.043,0,0,0,27.239,19.205Zm8.7-2.677a2.008,2.008,0,1,0,2.008,2.008A2.011,2.011,0,0,0,35.942,16.528ZM27.239,32.6A5.356,5.356,0,1,1,32.6,27.239,5.362,5.362,0,0,1,27.239,32.6Z" fill="#fff"/>
</svg>
