<svg id="Twitter" xmlns="http://www.w3.org/2000/svg" width="55" height="55" viewBox="0 0 55 55">
  <path id="Exclusão_2" data-name="Exclusão 2" d="M27.5,55A27.507,27.507,0,0,1,16.8,2.161,27.507,27.507,0,0,1,38.2,52.839,27.326,27.326,0,0,1,27.5,55ZM12.032,36.89h0a17.956,17.956,0,0,0,9.736,2.845,18.271,18.271,0,0,0,7.738-1.64,17.066,17.066,0,0,0,5.655-4.237,18.6,18.6,0,0,0,3.468-5.808A18.342,18.342,0,0,0,39.808,21.7c0-.27,0-.549-.019-.824a13.531,13.531,0,0,0,3.18-3.278,12.686,12.686,0,0,1-3.651.981,6.319,6.319,0,0,0,2.787-3.494,12.576,12.576,0,0,1-4.024,1.531A6.347,6.347,0,0,0,27.107,20.95a7.146,7.146,0,0,0,.157,1.453A18.065,18.065,0,0,1,14.19,15.767a6.352,6.352,0,0,0,1.963,8.481,6.405,6.405,0,0,1-2.866-.805v.079a6.341,6.341,0,0,0,5.085,6.222,6.653,6.653,0,0,1-1.669.217,7.964,7.964,0,0,1-1.2-.1,6.355,6.355,0,0,0,5.928,4.4,12.641,12.641,0,0,1-7.872,2.709A13.147,13.147,0,0,1,12.032,36.89Z" fill="#fff"/>
</svg>
