<svg width="72" height="81" viewBox="0 0 72 81" fill="none" xmlns="http://www.w3.org/2000/svg">
<g clip-path="url(#clip0)">
<path d="M21.454 0.0250248C18.6365 0.0250248 15.8465 0.580015 13.2434 1.6583C10.6404 2.73659 8.27524 4.31706 6.28302 6.30946C4.29081 8.30186 2.71056 10.6672 1.63252 13.2703C0.554468 15.8735 -0.000262566 18.6635 9.32312e-08 21.481C9.32312e-08 21.535 9.32312e-08 21.588 9.32312e-08 21.643V57.182H14.3V21.641C14.3222 19.7606 15.0849 17.9647 16.4225 16.6428C17.7601 15.3209 19.5649 14.5796 21.4455 14.5796C23.3261 14.5796 25.1309 15.3209 26.4685 16.6428C27.8061 17.9647 28.5688 19.7606 28.591 21.641V21.641V57.18H42.89V22.502C42.906 22.163 42.915 21.822 42.915 21.48C42.9147 18.6621 42.3594 15.8718 41.2807 13.2685C40.202 10.6652 38.6211 8.29982 36.6283 6.30751C34.6354 4.31521 32.2696 2.73496 29.666 1.657C27.0624 0.579047 24.2719 0.0244995 21.454 0.0250248V0.0250248Z" fill="white"/>
<path d="M28.5649 58.966C28.5697 64.6562 30.8347 70.1115 34.8617 74.1317C36.8556 76.1223 39.2222 77.7007 41.8261 78.7768C44.4301 79.8528 47.2204 80.4054 50.0379 80.403C52.8554 80.4007 55.6449 79.8434 58.247 78.763C60.8492 77.6826 63.213 76.1002 65.2036 74.1063C67.1943 72.1123 68.7726 69.7458 69.8487 67.1419C70.9247 64.5379 71.4773 61.7475 71.4749 58.93C71.4749 58.876 71.4749 58.823 71.4749 58.768V16.082H57.175V58.768C57.1515 60.6477 56.3883 62.4424 55.0507 63.7632C53.713 65.084 51.9088 65.8244 50.0289 65.824C49.1086 65.8459 48.193 65.6856 47.3349 65.3523C46.4768 65.019 45.693 64.5192 45.0288 63.8818C44.3645 63.2444 43.8329 62.482 43.4644 61.6383C43.096 60.7947 42.898 59.8865 42.8819 58.966H28.5849" fill="white"/>
<path d="M71.4752 0H57.1802V14.295H71.4752V0Z" fill="white"/>
</g>
<defs>
<clipPath id="clip0">
<rect width="71.475" height="80.384" fill="white"/>
</clipPath>
</defs>
</svg>
